<mxfile host="65bd71144e" modified="2020-10-16T20:48:00.653Z" agent="5.0 (Macintosh; Intel Mac OS X 10_15_6) AppleWebKit/537.36 (KHTML, like Gecko) Code/1.49.2 Chrome/83.0.4103.122 Electron/9.2.1 Safari/537.36" etag="yQ8TA-yhK2TFEFzEXrRk" version="13.6.5">
    <diagram id="6hGFLwfOUW9BJ-s0fimq" name="Page-1">
        <mxGraphModel dx="1560" dy="1640" grid="1" gridSize="10" guides="1" tooltips="1" connect="1" arrows="1" fold="1" page="1" pageScale="1" pageWidth="1100" pageHeight="900" math="0" shadow="0">
            <root>
                <mxCell id="0"/>
                <mxCell id="1" parent="0"/>
                <mxCell id="152" value="" style="rounded=0;whiteSpace=wrap;html=1;strokeWidth=3;fillColor=none;dashed=1;" parent="1" vertex="1">
                    <mxGeometry x="75" y="70" width="260" height="470" as="geometry"/>
                </mxCell>
                <mxCell id="72" value="" style="rounded=0;whiteSpace=wrap;html=1;strokeWidth=3;fillColor=none;" parent="1" vertex="1">
                    <mxGeometry x="120" y="120" width="170" height="320" as="geometry"/>
                </mxCell>
                <mxCell id="138" value="Main" style="rounded=0;whiteSpace=wrap;html=1;fontFamily=微軟正黑體;fontSize=24;fontStyle=1;strokeWidth=3;shadow=0;glass=0;comic=0;" parent="1" vertex="1">
                    <mxGeometry x="130" y="360" width="150" height="70" as="geometry"/>
                </mxCell>
                <mxCell id="156" style="edgeStyle=orthogonalEdgeStyle;rounded=0;orthogonalLoop=1;jettySize=auto;html=1;exitX=1;exitY=0.5;exitDx=0;exitDy=0;entryX=0;entryY=0.5;entryDx=0;entryDy=0;strokeWidth=3;" parent="1" source="147" target="154" edge="1">
                    <mxGeometry relative="1" as="geometry"/>
                </mxCell>
                <mxCell id="147" value="setTimeout" style="rounded=0;whiteSpace=wrap;html=1;fontFamily=微軟正黑體;fontSize=24;fontStyle=1;strokeWidth=3;shadow=0;glass=0;comic=0;dashed=1;" parent="1" vertex="1">
                    <mxGeometry x="130" y="280" width="150" height="70" as="geometry"/>
                </mxCell>
                <mxCell id="150" value="&lt;div style=&quot;text-align: center&quot;&gt;&lt;span style=&quot;font-size: 24px&quot;&gt;&lt;b&gt;主線程&lt;/b&gt;&lt;/span&gt;&lt;/div&gt;" style="text;whiteSpace=wrap;html=1;" parent="1" vertex="1">
                    <mxGeometry x="165" y="480" width="80" height="30" as="geometry"/>
                </mxCell>
                <mxCell id="153" value="" style="rounded=0;whiteSpace=wrap;html=1;strokeWidth=3;fillColor=none;dashed=1;" parent="1" vertex="1">
                    <mxGeometry x="460" y="70" width="510" height="160" as="geometry"/>
                </mxCell>
                <mxCell id="154" value="setTimeout" style="rounded=0;whiteSpace=wrap;html=1;fontFamily=微軟正黑體;fontSize=24;fontStyle=1;strokeWidth=3;shadow=0;glass=0;comic=0;" parent="1" vertex="1">
                    <mxGeometry x="480" y="90" width="150" height="70" as="geometry"/>
                </mxCell>
                <mxCell id="155" value="&lt;div style=&quot;text-align: center&quot;&gt;&lt;span style=&quot;font-size: 24px&quot;&gt;&lt;b&gt;watcher&lt;/b&gt;&lt;/span&gt;&lt;/div&gt;" style="text;whiteSpace=wrap;html=1;" parent="1" vertex="1">
                    <mxGeometry x="675" y="180" width="80" height="30" as="geometry"/>
                </mxCell>
                <mxCell id="157" value="" style="rounded=0;whiteSpace=wrap;html=1;strokeWidth=3;fillColor=none;dashed=1;" parent="1" vertex="1">
                    <mxGeometry x="75" y="570" width="885" height="180" as="geometry"/>
                </mxCell>
                <mxCell id="158" value="&lt;div style=&quot;text-align: center&quot;&gt;&lt;span style=&quot;font-size: 24px&quot;&gt;&lt;b&gt;Job Queue&lt;/b&gt;&lt;/span&gt;&lt;/div&gt;" style="text;whiteSpace=wrap;html=1;" parent="1" vertex="1">
                    <mxGeometry x="445" y="690" width="145" height="30" as="geometry"/>
                </mxCell>
            </root>
        </mxGraphModel>
    </diagram>
</mxfile>